<svg xmlns="http://www.w3.org/2000/svg" viewBox="0 0 500 268.47">
  <path class="svg-elt" id="f" d="m39.47,28.88c4.16-2.12,7.27-3.31,9.31-3.57,4.59-.42,7.47-.77,8.66-1.02,5.35-2.12,8.02-5.65,8.02-10.57,0-2.72-1.06-5.3-3.18-7.77-2.72-2.12-4.98-3.18-6.76-3.18-8.23,0-16.09,1.7-23.56,5.1-11.81,5.95-20.3,14.74-25.48,26.37-2.9,6.12-4.33,14.32-4.33,24.59v96.68c0,2.98.38,5.22,1.14,6.75,2.47,4.16,5.78,6.24,9.94,6.24,2.21,0,4.33-.76,6.37-2.29,3.14-1.86,4.72-5.43,4.72-10.7v-40.37c0-.76.08-1.35.25-1.78,1.78-5.52,5.39-8.28,10.82-8.28h17.07c2.98,0,5.23-.38,6.76-1.15,4.16-2.46,6.24-5.77,6.24-9.94,0-2.21-.76-4.37-2.29-6.5-1.86-3.06-5.43-4.59-10.7-4.59h-24.07c-2.72-1.19-4.08-2.72-4.08-4.59v-22.55c0-11.63,5.05-20.59,15.15-26.88Z"/>
  <path class="svg-elt" id="u1" d="m98.53,108.7c1.1,0,2.59.3,4.45.89,4.33,2.47,6.5,5.78,6.5,9.94v32.4c0,4.33.17,7.44.51,9.3.93,4.93,2.25,8.75,3.94,11.47,1.37,2.89,4.04,6.16,8.03,9.81,6.71,5.27,13.76,7.9,21.15,7.9h1.9c6.62,0,13.09-2.17,19.36-6.5.09,0,1.41-1.1,3.96-3.31,3.82-4.33,6.16-7.72,7-10.19,2.21-3.9,3.31-10.06,3.31-18.47v-57.2c0-3.9.98-6.83,2.94-8.79,2.46-2.46,5.14-3.7,8.02-3.7,2.47,0,4.68.76,6.62,2.29,2.98,1.96,4.47,5.48,4.47,10.57v57.2c0,10.37-1.41,18.69-4.21,24.97-2.37,6.12-6.24,12.1-11.59,17.96-11.72,11.55-25.61,17.33-41.67,17.33s-30.83-7.56-40.55-17.33c-15.76-15.85-15.25-30.44-15.25-42.22v-31.45c0-3.65.76-6.41,2.29-8.28,2.47-3.06,5.4-4.59,8.8-4.59Z"/>
  <path class="svg-elt" id="u2" d="m497.85,153.02v-31.45c0-3.65-.76-6.41-2.29-8.28-2.46-3.06-5.4-4.59-8.79-4.59-1.11,0-2.59.3-4.46.89-4.33,2.47-6.5,5.78-6.5,9.94v32.4c0,4.33-.17,7.44-.51,9.3-.94,4.93-2.25,8.75-3.95,11.47-1.36,2.89-4.04,6.16-8.03,9.81-6.71,5.27-13.76,7.9-21.15,7.9h-1.91c-6.62,0-13.08-2.17-19.36-6.5-.09,0-1.4-1.1-3.95-3.31-3.82-4.33-6.16-7.72-7.01-10.19-2.21-3.9-3.31-10.06-3.31-18.47v-57.2c0-3.9-.98-6.83-2.93-8.79-2.47-2.46-5.14-3.7-8.03-3.7-2.46,0-4.67.76-6.62,2.29-2.97,1.96-4.46,5.48-4.46,10.57v57.2c0,10.37,1.4,18.69,4.2,24.97,2.38,6.12,6.24,12.1,11.59,17.96,11.72,11.55,25.61,17.33,41.66,17.33s30.84-7.56,40.55-17.33c15.77-15.85,15.25-30.44,15.25-42.22Z"/>
  <path class="svg-elt" id="g" d="m355.3,201.11v-105.74c0-4.41-.98-7.56-2.94-9.43-2.55-2.46-5.22-3.7-8.02-3.7-4.08,0-7.39,1.96-9.94,5.86-1.19,3.82-3.15,5.73-5.86,5.73-1.45,0-3.15-.72-5.1-2.17-10.96-6.2-21.79-9.3-32.49-9.3h-2.04c-12.49,0-24.68,3.91-36.56,11.72-3.92,2.55-8.46,6.75-13.64,12.61-4.16,5.61-7,10.24-8.53,13.89-3.92,9.09-5.86,17.76-5.86,25.99v2.29c0,2.04.3,5.31.89,9.81,2.13,11.9,7.05,22.47,14.78,31.72,13.93,15.21,30.66,22.8,50.2,22.8,4.76,0,9.86-.64,15.29-1.91,10.28-2.55,19.36-7.3,27.26-14.27.25,0,.39.09.39.25v3.18c0,6.54-1.53,12.91-4.59,19.11-5.02,9.94-13.09,17.07-24.21,21.4-3.41,1.1-6.84,1.91-10.33,2.42-4.75,0-8.02.55-9.8,1.66-3.66,2.55-5.48,5.73-5.48,9.56,0,1.78.64,3.77,1.92,5.99,2.55,3.39,5.56,5.1,9.04,5.1.17-.09.34-.13.51-.13h.64c8.57,0,17.58-2.08,27.01-6.24,5.94-2.8,11.59-6.71,16.94-11.72,5.18-5.27,8.66-9.43,10.45-12.49,6.71-11.21,10.07-22.55,10.07-34.02Zm-22.17-52.49c0,9.77-3.49,18.9-10.45,27.39-9.27,10.11-20.18,15.16-32.75,15.16-5.69,0-11.43-1.15-17.19-3.44-3.66-1.53-7.99-4.37-12.99-8.54-8.84-9.17-13.25-19.36-13.25-30.58v-1.66c0-9.76,3.47-18.9,10.45-27.39,9.25-10.1,20.17-15.16,32.74-15.16,5.69,0,11.43,1.19,17.21,3.57,3.65,1.45,7.94,4.25,12.86,8.41,8.92,9.26,13.38,19.45,13.38,30.58v1.66Z"/>
  <circle class="svg-elt" id="bubble" cx="486.77" cy="14.11" r="11.08" fill="none" stroke="#000" stroke-linejoin="round" stroke-width="2.4"/>
</svg>